<svg id="_2" data-name="2" xmlns="http://www.w3.org/2000/svg" width="1788" height="422.282" viewBox="0 0 1788 422.282">
  <metadata><?xpacket begin="﻿" id="W5M0MpCehiHzreSzNTczkc9d"?>
<x:xmpmeta xmlns:x="adobe:ns:meta/" x:xmptk="Adobe XMP Core 5.6-c142 79.160924, 2017/07/13-01:06:39        ">
   <rdf:RDF xmlns:rdf="http://www.w3.org/1999/02/22-rdf-syntax-ns#">
      <rdf:Description rdf:about=""/>
   </rdf:RDF>
</x:xmpmeta>
                                                                                                    
                                                                                                    
                                                                                                    
                                                                                                    
                                                                                                    
                                                                                                    
                                                                                                    
                                                                                                    
                                                                                                    
                                                                                                    
                                                                                                    
                                                                                                    
                                                                                                    
                                                                                                    
                                                                                                    
                                                                                                    
                                                                                                    
                                                                                                    
                                                                                                    
                                                                                                    
                           
<?xpacket end="w"?></metadata>
<defs>
    <style>
      .cls-1 {
        fill: #00a1e2;
      }

      .cls-1, .cls-2, .cls-3, .cls-4 {
        fill-rule: evenodd;
      }

      .cls-2 {
        fill: #3e3d3d;
      }

      .cls-3 {
        fill: #fff;
      }

      .cls-4 {
        fill: #535353;
      }
    </style>
  </defs>
  <g id="text">
    <path id="edia" class="cls-1" d="M425.572,156.851q-33.165,30.067-33.165,71.642,0,32.623,22.11,60.288,29.64,33.1,71.459,33.1h0.8q37.169,0,65.53-27.026v-0.479l-26.116-26.067q-17.784,16.313-39.9,16.312a55.983,55.983,0,0,1-25.315-6.077q-20.668-11.034-27.558-31.663H578.262a116.407,116.407,0,0,0,1.923-18.71q0-32.463-22.11-60.289-29.963-33.1-71.3-33.1-34.288,0-61.2,22.068h0Zm11.536,43.817q19.065-28.623,48.868-28.625,13.615,0,27.878,7.037,19.065,11.992,25.315,30.7H433.423ZM770.527,29.4q-26.6.322-24.193,39.659v84.115l-5.288-3.2q-20.668-15.19-50.149-15.192a97.044,97.044,0,0,0-54.475,16.471q-40.216,30.865-40.215,76.92,0,28.305,16.343,53.571,31.082,40.141,76.425,40.139H690.9q29.32,0,55.437-18.39v18.39h37.331V61.862l39.094,0.32V29.4H770.527ZM642.992,197.47q18.9-25.427,46.3-25.427a56.791,56.791,0,0,1,32.365,9.915q24.671,18.71,24.674,44.936v2.879q0,14.553-8.973,29.1-18.588,25.749-46.464,25.747a56.429,56.429,0,0,1-29.48-7.836q-27.879-18.549-27.878-48.3,0-16.149,9.453-31.023h0Zm156.7,124.414h37.331v-187.1H799.687v187.1ZM813.146,85.369q-13.459,4.8-13.459,17.591v1.279l0.481,3.678q4.963,13.912,17.624,13.913h1.6l3.685-.32q13.939-5.117,13.939-18.071l-0.48-4.157q-4.65-14.711-17.945-14.712Zm80.11,66.2q-40.218,30.385-40.216,76.919,0,30.068,18.906,56.61,30.764,36.783,72.9,36.781h4.967q27.236,0,53.356-18.39v18.39h37.33v-187.1h-37.33v18.39h-0.48q-25.643-18.387-55.76-18.39-28.84,0-53.674,16.791h0Zm7.851,44.137q18.583-23.666,45.5-23.668,14.419,0,28.68,7.836,27.878,18.554,27.881,47.815v2.558q0,15.195-10.257,30.7-18.908,23.668-44.381,23.668h-2.4a55.475,55.475,0,0,1-25.8-6.557q-29.962-18.549-29.961-49.893,0-16.631,10.735-32.463h0Z" transform="translate(0 -0.031)"/>
    <g id="Shop">
      <path id="Shop_copy_3" data-name="Shop copy 3" class="cls-2" d="M1254.69,204.007V90.458h-32.73V332.341h33.62V261.816a34.128,34.128,0,0,1,10.52-25.282,34.8,34.8,0,0,1,25.48-10.645,36.134,36.134,0,0,1,35.85,35.927v70.525h32.73V261.816q0-28.386-20.14-48.494-20.145-19.961-48.44-19.96a67.371,67.371,0,0,0-36.89,10.645h0Zm192.87,22.473a36.133,36.133,0,1,1-25.77,10.645,35.491,35.491,0,0,1,25.77-10.645h0Zm0,105.861q28.74,0,49.18-20.4t20.44-49.087q0-28.682-20.44-48.938-20.445-20.549-49.18-20.551t-49.03,20.551q-20.6,20.257-20.59,48.938t20.59,49.087q20.295,20.4,49.03,20.4h0Zm135.26-58.322a37.71,37.71,0,1,1,26.68,11.055A36.274,36.274,0,0,1,1582.82,274.019Zm-48.81-102.007v238l37.74-12.562V312.962a73.728,73.728,0,0,0,37.75,9.8q31.32,0,53.41-22.047t22.08-53.327q0-31.281-22.08-53.328t-53.41-22.047q-22.785,0-40.64,11.558Z" transform="translate(0 -0.031)"/>
      <path id="s" class="cls-2" d="M1138.86,335c18.48,0,37.16-7.425,49.21-17.734s15.78-22.708,15.78-37.2c0-14.24-1.69-26.039-9.64-35.4-10.28-12.337-22.5-20.965-45.75-23.616-15.3-1.656-32.92-5.405-39.2-13.521a23.746,23.746,0,0,1-5.39-14.78c0-5.962.37-12,3.38-18.134,5.85-11.84,17.15-18.9,31.62-18.9,13.05,0,21.86,5.277,28.72,13.556,5.68,6.873,8.53,12.189,8.53,23.945l29.87,0.249c0-19.832-6.23-35.572-18.69-47.828-12.38-12.253-30.42-20.652-49.57-20.652-20.82,0-38.19,11.869-49.81,26.525-9.37,12.006-12.91,25.752-12.91,41.235a52.492,52.492,0,0,0,13.92,36.036c11.12,12.09,27.22,17.1,48.3,19.589,15.05,1.658,25.51,6.643,31.36,12.686q6.4,5.343,6.4,14.781,0,14.283-10.48,21.859t-25.65,7.577a37.929,37.929,0,0,1-21.95-6.707c-8.03-5.63-9.77-9.62-9.77-19.972h-30c0,18.134,6.48,30.895,19.44,41.742Q1114.52,335,1138.86,335h0Z" transform="translate(0 -0.031)"/>
    </g>
  </g>
  <g id="m">
    <path class="cls-1" d="M372.54,23.244V398.479c0,17.446-18.067,30.426-35.92,20.22C322.31,410.527,36.349,245.566,11.942,231.457c-16.029-9.269-15.759-31.369,0-40.647C29.511,180.462,316.564,14.659,337.352,3.141,352.574-5.307,372.54,4.025,372.54,23.244Z" transform="translate(0 -0.031)"/>
    <path id="M-2" data-name="M" class="cls-3" d="M90.958,225.748L90.8,312.44h37.137V199.979q0-6.042,3.188-14.952,12.911-21.63,33.471-21.633a49.263,49.263,0,0,1,16.416,3.181q21.517,12.729,21.517,33.086V312.44h37.137V205.388q0-11.293,2.869-18.77,11.954-23.223,34.746-23.224a56.049,56.049,0,0,1,11.475,1.591q25.978,10.975,25.98,36.744V312.44h37.137V201.729a75.047,75.047,0,0,0-19.445-51.379q-23.59-24.016-54.35-24.019-33.792,0-56.741,25.292-23.59-25.291-55.944-25.292a74.688,74.688,0,0,0-36.978,9.7h-0.478Q85.38,165.145,90.958,225.748h0Z" transform="translate(0 -0.031)"/>
  </g>
  <path id="shape" class="cls-2" d="M1640.31,169.812h17.38a2,2,0,0,1,2,2V189a2,2,0,0,1-2,2h-17.38a2,2,0,0,1-2-2V171.812A2,2,0,0,1,1640.31,169.812Zm33.6,9.094h20.46a2,2,0,0,1,2,2v21.719a2,2,0,0,1-2,2h-20.46a2,2,0,0,1-2-2V180.906A2,2,0,0,1,1673.91,178.906Zm7.96,50.938h35.69a2,2,0,0,1,2,2v33.875a2,2,0,0,1-2,2h-35.69a2,2,0,0,1-2-2V231.844A2,2,0,0,1,1681.87,229.844Zm27.16-32.75h20.47a2,2,0,0,1,2,2v21.781a2,2,0,0,1-2,2h-20.47a2,2,0,0,1-2-2V199.094A2,2,0,0,1,1709.03,197.094Zm22.94,39.406h8.22a2,2,0,0,1,2,2v8.062a2,2,0,0,1-2,2h-8.22a2,2,0,0,1-2-2V238.5A2,2,0,0,1,1731.97,236.5Zm7.62,22.656h17.35a2,2,0,0,1,2,2v18.781a2,2,0,0,1-2,2h-17.35a2,2,0,0,1-2-2V261.156A2,2,0,0,1,1739.59,259.156Zm38.16-59.031H1786a2,2,0,0,1,2,2v9.594a2,2,0,0,1-2,2h-8.25a2,2,0,0,1-2-2v-9.594A2,2,0,0,1,1777.75,200.125Zm-13.72,27.25h12.81a2,2,0,0,1,2,2v14.156a2,2,0,0,1-2,2h-12.81a2,2,0,0,1-2-2V229.375A2,2,0,0,1,1764.03,227.375Zm-16.81-30.281h8.22a2,2,0,0,1,2,2v8.125a2,2,0,0,1-2,2h-8.22a2,2,0,0,1-2-2v-8.125A2,2,0,0,1,1747.22,197.094Zm-7.63-39.344h15.85a2,2,0,0,1,2,2v15.656a2,2,0,0,1-2,2h-15.85a2,2,0,0,1-2-2V159.75A2,2,0,0,1,1739.59,157.75Zm-35.12,0h11.28a2,2,0,0,1,2,2v9.562a2,2,0,0,1-2,2h-11.28a2,2,0,0,1-2-2V159.75A2,2,0,0,1,1704.47,157.75Zm-33.6-6.094h11.22a2,2,0,0,1,2,2v9.625a2,2,0,0,1-2,2h-11.22a2,2,0,0,1-2-2v-9.625A2,2,0,0,1,1670.87,151.656Z" transform="translate(0 -0.031)"/>
  <path id="Media_Shop_Canada_inc" data-name="Media Shop Canada inc" class="cls-4" d="M602.94,352.716v54.845h10.784v-22.2L629.235,406.7l15.477-21.339v22.2H655.5V352.716l-26.262,36Zm61.968,1.13v53.781h32.353v-10.7H675.693v-10.8h16.176V375.385H675.693v-10.8h21.568V353.846H664.908Zm54.037,0.166H704.666v53.549h14.279a26.764,26.764,0,0,0,19.6-7.845q7.189-7.146,7.189-18.9t-7.189-18.963a27.323,27.323,0,0,0-19.6-7.878v0.033Zm16.043,26.724c0,9.676-6.3,16.088-15.976,16.088h-3.595V364.649h3.5C728.576,364.649,734.988,371.149,734.988,380.736Zm18.16,26.825h10.784V353.979H753.148v53.582Zm18.18,0h11.649l3.628-8.144h18.374l3.628,8.144H820.29l-24.5-54.679Zm19.538-17.65,4.959-11.335,4.893,11.335h-9.852Zm74.544,7.15c-3.027,0-6.282-2.437-6.282-5.428l-10.708,2.275c1.221,7.98,8.723,14.058,17.022,14.058,9.032,0,17.153-7.3,17.153-16.333,0-7.459-5.972-12.611-12.742-14.561-3.727-1.105-9.846-2.389-9.846-7.216a5.444,5.444,0,0,1,10.887-.032l10.708-2.259a16.372,16.372,0,0,0-32.58,2.259c0,7.3,5.777,12.66,12.319,14.886,3.711,1.284,10.286,1.966,10.286,6.858,0,2.974-3.288,5.444-6.266,5.444ZM890,353.979v53.582h10.751V386.088h17.94v21.473h10.751V353.979H918.691v21.439h-17.94V353.979H890Zm74.078-.432a27.369,27.369,0,1,0,19.238,8.01A26.261,26.261,0,0,0,964.078,353.547Zm0,10.869a16.354,16.354,0,1,1-11.55,4.787A15.714,15.714,0,0,1,964.078,364.416Zm34.607,43.145h10.785V391.473h8.05a18.305,18.305,0,0,0,13.32-5.485,17.722,17.722,0,0,0,5.56-13.229,18.853,18.853,0,0,0-18.88-18.78H998.685v53.582Zm26.925-34.8a8.167,8.167,0,0,1-8.09,8.077l-8.05-.033V364.649h8.05A8.212,8.212,0,0,1,1025.61,372.759Zm85.4,27.256-7.69-7.678a16.308,16.308,0,1,1-23.09-23.035,15.551,15.551,0,0,1,11.51-4.786,15.9,15.9,0,0,1,11.55,4.786l7.69-7.678a27.718,27.718,0,0,0-19.3-7.944l0.03-.133a27.19,27.19,0,1,0,0,54.379A27.1,27.1,0,0,0,1111.01,400.015Zm4.35,7.546h11.65l3.63-8.144h18.37l3.63,8.144h11.68l-24.49-54.679Zm19.54-17.65,4.96-11.335,4.89,11.335h-9.85Zm36.83-37.062v54.778h10.79V377.878l32.35,30.779V353.846h-10.82V383.6Zm50.55,54.712h11.65l3.63-8.144h18.37l3.63,8.144h11.68l-24.49-54.679Zm19.54-17.65,4.96-11.335,4.89,11.335h-9.85Zm51.11-35.9h-14.28v53.549h14.28a26.771,26.771,0,0,0,19.61-7.845q7.185-7.146,7.19-18.9t-7.19-18.963a27.334,27.334,0,0,0-19.61-7.878v0.033Zm16.05,26.724c0,9.676-6.31,16.088-15.98,16.088h-3.59V364.649h3.49C1302.56,364.649,1308.98,371.149,1308.98,380.736Zm11.46,26.825h11.65l3.63-8.144h18.38l3.62,8.144h11.69l-24.5-54.679Zm19.54-17.65,4.96-11.335,4.89,11.335h-9.85Zm59.55,17.65h10.78V353.979h-10.78v53.582Zm20.17-54.712v54.778h10.79V377.878l32.35,30.779V353.846h-10.82V383.6Zm97.05,47.166-7.69-7.678a16.311,16.311,0,1,1-23.1-23.035,15.573,15.573,0,0,1,11.52-4.786,15.9,15.9,0,0,1,11.55,4.786l7.69-7.678a27.744,27.744,0,0,0-19.31-7.944l0.03-.133a27.19,27.19,0,1,0,0,54.379A27.141,27.141,0,0,0,1516.75,400.015Z" transform="translate(0 -0.031)"/>
</svg>
